<svg xmlns="http://www.w3.org/2000/svg" width="314.74" height="356.745" viewBox="0 0 314.74 356.745">
    <defs>
        <style>
            .cls-1,.cls-11,.cls-2,.cls-3,.cls-9{fill:none}.cls-1,.cls-2{stroke:#898989}.cls-2{stroke-dasharray:2}.cls-3{stroke:#4989fa}.cls-9{stroke:#5a8cda}.cls-10,.cls-12{stroke:none}.cls-12{fill:#898989}
        </style>
    </defs>
    <g id="Group_4490" transform="translate(-931.26 -244.255)">
        <g id="Group_17" transform="translate(453.463 -1961)">
            <g id="Ellipse_40" class="cls-1" transform="translate(610 2211.406)">
                <ellipse cx="8.031" cy="7.495" class="cls-10" rx="8.031" ry="7.495"/>
                <ellipse cx="8.031" cy="7.495" class="cls-11" rx="7.531" ry="6.995"/>
            </g>
            <g id="Ellipse_40-2" class="cls-1" transform="translate(639.981 2211.406)">
                <circle cx="7.495" cy="7.495" r="7.495" class="cls-10"/>
                <circle cx="7.495" cy="7.495" r="6.995" class="cls-11"/>
            </g>
            <g id="Ellipse_40-3" class="cls-2" transform="translate(668.891 2211.406)">
                <ellipse cx="8.031" cy="7.495" class="cls-10" rx="8.031" ry="7.495"/>
                <ellipse cx="8.031" cy="7.495" class="cls-11" rx="7.531" ry="6.995"/>
            </g>
            <g id="Ellipse_40-4" class="cls-1" transform="translate(610 2240.317)">
                <circle cx="8.031" cy="8.031" r="8.031" class="cls-10"/>
                <circle cx="8.031" cy="8.031" r="7.531" class="cls-11"/>
            </g>
            <g id="Ellipse_40-5" class="cls-1" transform="translate(639.981 2240.317)">
                <ellipse cx="7.495" cy="8.031" class="cls-10" rx="7.495" ry="8.031"/>
                <ellipse cx="7.495" cy="8.031" class="cls-11" rx="6.995" ry="7.531"/>
            </g>
            <g id="Ellipse_40-6" class="cls-2" transform="translate(668.891 2240.317)">
                <circle cx="8.031" cy="8.031" r="8.031" class="cls-10"/>
                <circle cx="8.031" cy="8.031" r="7.531" class="cls-11"/>
            </g>
            <g id="Ellipse_40-7" class="cls-1" transform="translate(610 2270.298)">
                <circle cx="8.031" cy="8.031" r="8.031" class="cls-10"/>
                <circle cx="8.031" cy="8.031" r="7.531" class="cls-11"/>
            </g>
            <g id="Ellipse_40-8" class="cls-1" transform="translate(639.981 2270.298)">
                <ellipse cx="7.495" cy="8.031" class="cls-10" rx="7.495" ry="8.031"/>
                <ellipse cx="7.495" cy="8.031" class="cls-11" rx="6.995" ry="7.531"/>
            </g>
            <g id="Ellipse_40-9" class="cls-1" transform="translate(668.891 2270.298)">
                <circle cx="8.031" cy="8.031" r="8.031" class="cls-10"/>
                <circle cx="8.031" cy="8.031" r="7.531" class="cls-11"/>
            </g>
            <g id="Group_16" transform="translate(655.196 2205.255)">
                <g id="Ellipse_41" class="cls-3" transform="translate(0 0)">
                    <circle cx="28.052" cy="28.052" r="28.052" class="cls-10"/>
                    <circle cx="28.052" cy="28.052" r="27.552" class="cls-11"/>
                </g>
                <path id="Path_340" d="M0 0l25.973 25.973" class="cls-3" transform="matrix(0.995, -0.105, 0.105, 0.995, 49.971, 45.066)"/>
            </g>
        </g>
        <g id="Group_20" transform="translate(303.559 -1705)">
            <g id="Path_343" fill="none" stroke-dasharray="2">
                <path d="M0 0l45.233 17.505 16.625 44.353-43.388-17.59z" class="cls-10" transform="translate(627.701 2182.712) rotate(-45)"/>
                <path d="M0 0l.878.34.414.16.573.222-.231.597.31.743-.923.385L0 0zm3.73 1.444l.815.315h.002l.013.006h.001l.01.004.003.001.004.002.005.002h.001l.005.002 1.007.39-.361.932-1.866-.722.361-.932zm3.73 1.443l1.664.644.01.004.005.002.005.002h.002l.002.001h.001l.001.001h.001l.01.004.004.002h.002l.01.005h.002l.002.001.01.004.012.004.001.001h.001l.121.047-.36.933L7.1 3.82l.36-.933zm3.731 1.444l1.865.722-.36.932-1.866-.721.361-.933zm3.73 1.444l1.336.516.001.001.004.001.002.001.523.203-.361.932-1.865-.722.36-.932zm3.731 1.443l1.044.404h.001l.002.001.001.001.817.316-.36.933-1.866-.722.361-.933zm3.73 1.444l.748.29.005.001h.001l.004.002 1.108.429-.361.932-1.866-.721.361-.933zm3.73 1.444l1.866.722-.361.932-1.865-.722.36-.932zm3.731 1.443l1.865.722-.36.933-1.866-.722.361-.933zm3.73 1.444l.264.102h.002l.001.001h.002l.002.002h.003l.004.003h.001l.022.008h.002v.001h.002v.001h.002v.001h.002l.004.002.012.005 1.54.596-.36.932-1.865-.721.36-.933zm3.73 1.444l1.121.433.002.001h.002l.002.002.005.002h.002l.005.002h.002l.002.002h.002l.003.001.002.001h.001l.02.009.021.008h.001l.673.26-.36.933-1.866-.722.36-.932zm3.731 1.443l1.865.722-.36.933-1.866-.722.361-.933zm3.73 1.444l.469.181.022.06.06.159.083.221v.002l.002.004.046.123.001.003.005.014.001.002.004.01v.002l.001.002.001.003.002.004.001.004.002.003v.002l.001.003.001.002v.001l.002.003v.002l.003.005v.003l.002.003.004.012.006.015.008.02v.004l.002.004v.001l.004.01.001.003.006.015.001.003.001.002.004.01.001.003.003.008v.002l.003.006v.003h.001l.003.009.001.003.002.003v.003l.001.001.001.003v.002c.002.002.003.004.003.007l.003.007v.002c.003.004.004.009.006.013l.001.004.001.003.001.003.001.002v.001l.003.007v.001l.003.006.003.007v.001l.006.015v.001l.011.03.001.003.005.013.001.003.001.002.004.01.002.005v.003l.002.003v.002l.001.002v.001l.002.003.002.006.001.002.004.011v.001l.002.003v.004l.002.001v.003l.003.006.002.006.001.003.002.006.002.004v.002l.002.003.002.006.002.006.001.003.01.027.001.002.002.006.003.006v.002l.003.005v.003l.005.013.003.006v.001l.002.006v.001l.003.006v.001l.005.012v.002l.002.005.001.002v.002l.006.012v.003l.002.004.001.003.001.003.003.008.001.002v.002l.001.001.01.024.004.012.003.008v.002l.003.008.001.003.009.022.005.013v.002l.006.016.001.002v.001l.001.002.001.002.001.003v.002h.001l.002.007v.001h.001l.001.004.002.003v.003l.001.002.003.007.001.003.001.003.001.002v.001l.015.04.002.005v.001l.001.002.002.004.001.004.004.009v.002l.002.004v.002l.003.005-.937.351-.368-.983-.05-.02.021-.055-.129-.345.307-.115.162-.417zm1.697 3.457l.702 1.872-.937.351-.702-1.872.937-.351zm1.404 3.745l.426 1.139.002.004v.001l.003.007v.003h.001l.27.719-.937.351-.702-1.873.937-.35zm1.403 3.746l.702 1.873-.936.35-.702-1.872.936-.351zm1.404 3.745l.702 1.873-.936.351-.702-1.873.936-.35zm1.404 3.746l.03.08.008.019v.003l.004.01.001.002.001.003.001.002.002.005v.001l.003.007v.001l.001.002.651 1.738-.936.35-.702-1.872.936-.351zm1.404 3.745l.702 1.873-.936.351-.702-1.873.936-.35zm1.404 3.746l.702 1.873-.936.35-.702-1.872.936-.351zm1.404 3.745l.702 1.873-.936.351-.702-1.873.936-.35zm1.404 3.746l.702 1.873-.936.35-.702-1.872.936-.351zm1.404 3.745l.702 1.873-.936.351-.702-1.873.936-.35zm1.404 3.746l.378 1.009.001.002v.001l.001.002.002.004v.001l.002.004v.002l.318.848-.518.194.697.282.408 1.09-.054.133-1.853-.751.316-.78-.634-1.69.936-.351zm-3.95.391l1.854.752-.376.926-1.432-.58h-.001l-.006-.003-.003-.001-.009-.004-.005-.002-.003-.001-.004-.002h-.002l-.001-.001-.002-.001-.005-.002h-.001l-.001-.001-.378-.153.376-.927zm-3.706-1.503l1.853.752-.376.926-1.832-.743h-.001-.001l-.003-.002h-.001l-.003-.001-.004-.002h-.002v-.001h-.001l-.004-.002h-.001l.376-.927zm-3.707-1.503l1.853.752-.375.927-1.525-.618-.003-.002-.004-.001-.001-.001-.007-.002-.007-.003-.307-.125.376-.927zm-3.707-1.503l1.853.752-.375.927-1.196-.485-.01-.004h-.001l-.002-.001-.002-.001-.643-.26.376-.928zm-3.707-1.502l1.853.751-.375.927-.587-.238-.007-.003-.003-.001-.028-.011-.002-.001-.003-.002h-.002l-1.222-.496.376-.926zm-3.707-1.503l1.853.751-.375.927-1.003-.406-.85-.346.375-.926zm-3.707-1.503l1.853.751-.375.927-1.395-.566h-.004l-.004-.003h-.001l-.45-.182.376-.927zm-3.707-1.503l1.854.751-.376.927-1.846-.748h-.001l-.002-.002h-.003l-.001-.001.375-.927zm-3.707-1.503l1.854.752-.376.926-.137-.055h-.001l-.002-.001-.002-.001h-.001l-.002-.001-.004-.002-.002-.001h-.001l-.005-.002-.003-.002h-.003l-.002-.002h-.003l-.001-.001-.006-.002-1.679-.681.376-.927zm-3.707-1.503l1.854.752-.376.926-.17-.069h-.002l-.013-.005-.006-.003-.004-.002h-.002l-.002-.001-.003-.001-.003-.002h-.001-.002l-.007-.004-1.639-.664.376-.927zm-3.707-1.503l1.854.752-.376.927-.566-.23-.01-.004-.005-.002h-.002l-.002-.001-.005-.002-.002-.002h-.002l-.002-.001h-.001l-.002-.001-.007-.003h-.002l-.009-.005c-.003 0-.005-.002-.007-.003h-.002l-.004-.002h-.002l-1.221-.496.375-.927zm-1.364-2.774l.77 1.845-.923.385-.77-1.845.923-.385zm-1.54-3.692l.77 1.846-.923.385-.77-1.846.923-.385zm-1.54-3.692l.77 1.846-.923.385-.77-1.846.922-.385zm-1.54-3.691l.77 1.846-.924.385-.77-1.846.923-.385zm-1.541-3.692l.77 1.846-.923.385-.399-.956-.002-.004-.002-.006-.367-.88.923-.385zm-1.54-3.691l.77 1.846-.923.385-.457-1.094V23.5l-.002-.003v-.002l-.002-.002-.004-.01v-.002l-.003-.006-.001-.003-.301-.721.923-.385zm-1.54-3.692l.77 1.846-.924.385-.77-1.846.923-.385zm-1.541-3.691l.77 1.845-.923.386-.643-1.541v-.001l-.001-.003-.002-.005v-.001l-.001-.001v-.001l-.123-.293.923-.385zm-1.54-3.692l.77 1.846-.923.385-.77-1.846.923-.385zM4.255 7.6l.77 1.845-.923.385-.418-1.001-.001-.002v-.002l-.002-.003V8.82l-.35-.836.923-.385zm-1.54-3.692l.77 1.846-.924.385-.65-1.557V4.58l-.006-.014v-.002l-.001-.001-.001-.003-.004-.008V4.55l-.01-.021v-.001l-.003-.006v-.002l-.012-.028-.005-.011-.002-.005-.003-.008-.002-.005-.002-.004v-.002l-.003-.006-.03-.071-.003-.007-.001-.004-.002-.005-.001-.001V4.36l-.001-.002v-.001l-.003-.004v-.001-.003h-.001l-.003-.007-.001-.004-.001-.001-.003-.006-.007-.018-.003-.007v-.001-.001l-.002-.002V4.3 4.3h-.001v-.001-.001l-.001-.002-.001-.002.922-.386z" class="cls-12" transform="translate(627.701 2182.712) rotate(-45)"/>
            </g>
            <g id="Path_342" fill="#fff">
                <path d="M60.99 60.966L18.852 43.883.912.889l43.931 17.002L60.99 60.966z" class="cls-10" transform="translate(627.701 2165.726) rotate(-45)"/>
                <path fill="#4e8cfa" d="M1.826 1.779l17.407 41.719L60.12 60.075 44.454 18.276 1.826 1.779M0 0l45.233 17.505 16.625 44.353-43.388-17.59L0 0z" transform="translate(627.701 2165.726) rotate(-45)"/>
            </g>
            <g id="Path_341" fill="#fff" stroke-dasharray="2">
                <path d="M0 0l45.233 17.505 16.625 44.353-43.388-17.59z" class="cls-10" transform="translate(627.701 2148.74) rotate(-45)"/>
                <path d="M0 0l.878.34.414.16.573.222-.231.597.31.743-.923.385L0 0zm3.73 1.444l.815.315h.002l.013.006h.001l.01.004.003.001.004.002.005.002h.001l.005.002 1.007.39-.361.932-1.866-.722.361-.932zm3.73 1.443l1.664.644.01.004.005.002.005.002h.002l.002.001h.001l.001.001h.001l.01.004.004.002h.002l.01.005h.002l.002.001.01.004.012.004.001.001h.001l.121.047-.36.933L7.1 3.82l.36-.933zm3.731 1.444l1.865.722-.36.932-1.866-.721.361-.933zm3.73 1.444l1.336.516.001.001.004.001.002.001.523.203-.361.932-1.865-.722.36-.932zm3.731 1.443l1.044.404h.001l.002.001.001.001.817.316-.36.933-1.866-.722.361-.933zm3.73 1.444l.748.29.005.001h.001l.004.002 1.108.429-.361.932-1.866-.721.361-.933zm3.73 1.444l1.866.722-.361.932-1.865-.722.36-.932zm3.731 1.443l1.865.722-.36.933-1.866-.722.361-.933zm3.73 1.444l.264.102h.002l.001.001h.002l.002.002h.003l.004.003h.001l.022.008h.002v.001h.002v.001h.002v.001h.002l.004.002.012.005 1.54.596-.36.932-1.865-.721.36-.933zm3.73 1.444l1.121.433.002.001h.002l.002.002.005.002h.002l.005.002h.002l.002.002h.002l.003.001.002.001h.001l.02.009.021.008h.001l.673.26-.36.933-1.866-.722.36-.932zm3.731 1.443l1.865.722-.36.933-1.866-.722.361-.933zm3.73 1.444l.469.181.022.06.06.159.083.221v.002l.002.004.046.123.001.003.005.014.001.002.004.01v.002l.001.002.001.003.002.004.001.004.002.003v.002l.001.003.001.002v.001l.002.003v.002l.003.005v.003l.002.003.004.012.006.015.008.02v.004l.002.004v.001l.004.01.001.003.006.015.001.003.001.002.004.01.001.003.003.008v.002l.003.006v.003h.001l.003.009.001.003.002.003v.003l.001.001.001.003v.002c.002.002.003.004.003.007l.003.007v.002c.003.004.004.009.006.013l.001.004.001.003.001.003.001.002v.001l.003.007v.001l.003.006.003.007v.001l.006.015v.001l.011.03.001.003.005.013.001.003.001.002.004.01.002.005v.003l.002.003v.002l.001.002v.001l.002.003.002.006.001.002.004.011v.001l.002.003v.004l.002.001v.003l.003.006.002.006.001.003.002.006.002.004v.002l.002.003.002.006.002.006.001.003.01.027.001.002.002.006.003.006v.002l.003.005v.003l.005.013.003.006v.001l.002.006v.001l.003.006v.001l.005.012v.002l.002.005.001.002v.002l.006.012v.003l.002.004.001.003.001.003.003.008.001.002v.002l.001.001.01.024.004.012.003.008v.002l.003.008.001.003.009.022.005.013v.002l.006.016.001.002v.001l.001.002.001.002.001.003v.002h.001l.002.007v.001h.001l.001.004.002.003v.003l.001.002.003.007.001.003.001.003.001.002v.001l.015.04.002.005v.001l.001.002.002.004.001.004.004.009v.002l.002.004v.002l.003.005-.937.351-.368-.983-.05-.02.021-.055-.129-.345.307-.115.162-.417zm1.697 3.457l.702 1.872-.937.351-.702-1.872.937-.351zm1.404 3.745l.426 1.139.002.004v.001l.003.007v.003h.001l.27.719-.937.351-.702-1.873.937-.35zm1.403 3.746l.702 1.873-.936.35-.702-1.872.936-.351zm1.404 3.745l.702 1.873-.936.351-.702-1.873.936-.35zm1.404 3.746l.03.08.008.019v.003l.004.01.001.002.001.003.001.002.002.005v.001l.003.007v.001l.001.002.651 1.738-.936.35-.702-1.872.936-.351zm1.404 3.745l.702 1.873-.936.351-.702-1.873.936-.35zm1.404 3.746l.702 1.873-.936.35-.702-1.872.936-.351zm1.404 3.745l.702 1.873-.936.351-.702-1.873.936-.35zm1.404 3.746l.702 1.873-.936.35-.702-1.872.936-.351zm1.404 3.745l.702 1.873-.936.351-.702-1.873.936-.35zm1.404 3.746l.378 1.009.001.002v.001l.001.002.002.004v.001l.002.004v.002l.318.848-.518.194.697.282.408 1.09-.054.133-1.853-.751.316-.78-.634-1.69.936-.351zm-3.95.391l1.854.752-.376.926-1.432-.58h-.001l-.006-.003-.003-.001-.009-.004-.005-.002-.003-.001-.004-.002h-.002l-.001-.001-.002-.001-.005-.002h-.001l-.001-.001-.378-.153.376-.927zm-3.706-1.503l1.853.752-.376.926-1.832-.743h-.001-.001l-.003-.002h-.001l-.003-.001-.004-.002h-.002v-.001h-.001l-.004-.002h-.001l.376-.927zm-3.707-1.503l1.853.752-.375.927-1.525-.618-.003-.002-.004-.001-.001-.001-.007-.002-.007-.003-.307-.125.376-.927zm-3.707-1.503l1.853.752-.375.927-1.196-.485-.01-.004h-.001l-.002-.001-.002-.001-.643-.26.376-.928zm-3.707-1.502l1.853.751-.375.927-.587-.238-.007-.003-.003-.001-.028-.011-.002-.001-.003-.002h-.002l-1.222-.496.376-.926zm-3.707-1.503l1.853.751-.375.927-1.003-.406-.85-.346.375-.926zm-3.707-1.503l1.853.751-.375.927-1.395-.566h-.004l-.004-.003h-.001l-.45-.182.376-.927zm-3.707-1.503l1.854.751-.376.927-1.846-.748h-.001l-.002-.002h-.003l-.001-.001.375-.927zm-3.707-1.503l1.854.752-.376.926-.137-.055h-.001l-.002-.001-.002-.001h-.001l-.002-.001-.004-.002-.002-.001h-.001l-.005-.002-.003-.002h-.003l-.002-.002h-.003l-.001-.001-.006-.002-1.679-.681.376-.927zm-3.707-1.503l1.854.752-.376.926-.17-.069h-.002l-.013-.005-.006-.003-.004-.002h-.002l-.002-.001-.003-.001-.003-.002h-.001-.002l-.007-.004-1.639-.664.376-.927zm-3.707-1.503l1.854.752-.376.927-.566-.23-.01-.004-.005-.002h-.002l-.002-.001-.005-.002-.002-.002h-.002l-.002-.001h-.001l-.002-.001-.007-.003h-.002l-.009-.005c-.003 0-.005-.002-.007-.003h-.002l-.004-.002h-.002l-1.221-.496.375-.927zm-1.364-2.774l.77 1.845-.923.385-.77-1.845.923-.385zm-1.54-3.692l.77 1.846-.923.385-.77-1.846.923-.385zm-1.54-3.692l.77 1.846-.923.385-.77-1.846.922-.385zm-1.54-3.691l.77 1.846-.924.385-.77-1.846.923-.385zm-1.541-3.692l.77 1.846-.923.385-.399-.956-.002-.004-.002-.006-.367-.88.923-.385zm-1.54-3.691l.77 1.846-.923.385-.457-1.094V23.5l-.002-.003v-.002l-.002-.002-.004-.01v-.002l-.003-.006-.001-.003-.301-.721.923-.385zm-1.54-3.692l.77 1.846-.924.385-.77-1.846.923-.385zm-1.541-3.691l.77 1.845-.923.386-.643-1.541v-.001l-.001-.003-.002-.005v-.001l-.001-.001v-.001l-.123-.293.923-.385zm-1.54-3.692l.77 1.846-.923.385-.77-1.846.923-.385zM4.255 7.6l.77 1.845-.923.385-.418-1.001-.001-.002v-.002l-.002-.003V8.82l-.35-.836.923-.385zm-1.54-3.692l.77 1.846-.924.385-.65-1.557V4.58l-.006-.014v-.002l-.001-.001-.001-.003-.004-.008V4.55l-.01-.021v-.001l-.003-.006v-.002l-.012-.028-.005-.011-.002-.005-.003-.008-.002-.005-.002-.004v-.002l-.003-.006-.03-.071-.003-.007-.001-.004-.002-.005-.001-.001V4.36l-.001-.002v-.001l-.003-.004v-.001-.003h-.001l-.003-.007-.001-.004-.001-.001-.003-.006-.007-.018-.003-.007v-.001-.001l-.002-.002V4.3 4.3h-.001v-.001-.001l-.001-.002-.001-.002.922-.386z" class="cls-12" transform="translate(627.701 2148.74) rotate(-45)"/>
            </g>
        </g>
        <g id="Group_22" transform="translate(540.507 -2562)">
            <g id="Rectangle_86" fill="#fff" stroke="#898989" stroke-dasharray="2" transform="translate(616.493 3100)">
                <rect width="89" height="63" class="cls-10" rx="4"/>
                <rect width="88" height="62" x=".5" y=".5" class="cls-11" rx="3.5"/>
            </g>
            <g id="Rectangle_85" fill="#fff" stroke="#898989" transform="translate(606.493 3090)">
                <rect width="91" height="64" class="cls-10" rx="4"/>
                <rect width="90" height="63" x=".5" y=".5" class="cls-11" rx="3.5"/>
            </g>
            <g id="Ellipse_42" class="cls-1" transform="translate(613.493 3097)">
                <circle cx="2.5" cy="2.5" r="2.5" class="cls-10"/>
                <circle cx="2.5" cy="2.5" r="2" class="cls-11"/>
            </g>
            <g id="Ellipse_43" class="cls-1" transform="translate(620.493 3097)">
                <circle cx="2.5" cy="2.5" r="2.5" class="cls-10"/>
                <circle cx="2.5" cy="2.5" r="2" class="cls-11"/>
            </g>
            <g id="Ellipse_44" class="cls-1" transform="translate(627.493 3097)">
                <circle cx="2.5" cy="2.5" r="2.5" class="cls-10"/>
                <circle cx="2.5" cy="2.5" r="2" class="cls-11"/>
            </g>
            <g id="Group_22-2" transform="translate(629.418 3109.431)">
                <path id="Path_344" d="M0 0v17.223h16.569" class="cls-9" transform="translate(12.179 4.839) rotate(45)"/>
                <path id="Path_345" d="M0 17.223V0h16.569" class="cls-9" transform="translate(44.163 17.018) rotate(135)"/>
                <path id="Path_346" d="M660.705 3104.015l-13.323 32.68" class="cls-9" transform="translate(-631.769 -3104.015)"/>
            </g>
        </g>
    </g>
</svg>
