<svg xmlns="http://www.w3.org/2000/svg" xmlns:xlink="http://www.w3.org/1999/xlink" width="224.772" height="40.094" viewBox="0 0 224.772 40.094">
    <defs>
        <linearGradient id="linear-gradient" x1=".001" x2=".618" y1="1.07" y2=".07" gradientUnits="objectBoundingBox">
            <stop offset="0" stop-color="#0045fa"/>
            <stop offset=".28" stop-color="#006efc"/>
            <stop offset=".6" stop-color="#0096fe"/>
            <stop offset=".85" stop-color="#00afff"/>
            <stop offset="1" stop-color="#00b8ff"/>
        </linearGradient>
        <linearGradient id="linear-gradient-2" x1="-.016" x2=".632" y1="-.089" y2=".924" xlink:href="#linear-gradient"/>
        <linearGradient id="linear-gradient-3" x1=".3" x2=".95" y1="1.137" y2=".098" xlink:href="#linear-gradient"/>
        <linearGradient id="linear-gradient-4" x1=".176" x2=".684" y1="1.283" y2=".058" xlink:href="#linear-gradient"/>
        <style>
            .cls-3{fill:#fff}.cls-7{fill:#112130}
        </style>
    </defs>
    <g id="Layer_2" transform="translate(0 0)">
        <g id="Layer_1" transform="translate(0 0)">
            <path id="Path_5" fill="url(#linear-gradient)" d="M79.74 0L67.623 30.293a.8.8 0 0 1-.054.108.828.828 0 0 1-.673.384.808.808 0 0 1-.754-.491l-1.225-2.942L60.42 16.1 66.869 0z" transform="translate(-19.747 0.054)"/>
            <path id="Path_1" fill="url(#linear-gradient-2)" d="M61.357 31.008l-.108.276-.061.141a2.437 2.437 0 0 1-2.228 1.461h-9.592a2.437 2.437 0 0 1-1.447-.478 2.491 2.491 0 0 1-.734-.875l-.135-.343-5.762-14.406 4.517-11.249 1.151-2.888L47 2.54a.821.821 0 0 1 1.427-.074l.04.074.047.108 5.655 14.137 4.5 11.249 1.185 2.942a.808.808 0 0 0 .754.491.828.828 0 0 0 .673-.384.8.8 0 0 0 .076-.075z" transform="translate(-13.495 -0.776)"/>
            <path id="Path_3" fill="url(#linear-gradient-3)" d="M49.935 45.643a1.919 1.919 0 0 1-.135-.343z" transform="translate(-16.276 -14.805)"/>
            <path id="Path_4" fill="url(#linear-gradient-4)" d="M38.713 1.831l-.04-.074a.821.821 0 0 0-1.427.074l-.04.108-1.145 2.915L31.544 16.1l-5.661 14.139-.04.1-.061.155-.094.236a2.491 2.491 0 0 1-.747.9 2.437 2.437 0 0 1-1.447.478h-9.648a2.437 2.437 0 0 1-2.228-1.461l-.061-.141-.088-.229.04.074a.808.808 0 0 0 .673.384.821.821 0 0 0 .734-.458l.054-.128 1.158-2.895 4.5-11.249L24.5 1.488a2.471 2.471 0 0 1 .788-1A2.417 2.417 0 0 1 26.751 0h9.707a2.444 2.444 0 0 1 2.1 1.447l.061.148z" transform="translate(-3.749 0)"/>
            <path id="Path_6" fill="#a5e3fd" d="M0 16.37L7.688 35.6l.054.128.04.074a.808.808 0 0 0 .673.384.821.821 0 0 0 .734-.458l.054-.128 1.157-2.9 4.5-11.249-2.02-5.082z" transform="translate(0 -5.35)"/>
            <path id="Path_7" d="M107.309 24.926v12.286h-5.069v-21.3h4.941v2.841a6.4 6.4 0 0 1 2.693-2.6 7.849 7.849 0 0 1 3.608-.855 7.027 7.027 0 0 1 5.729 2.363 9.175 9.175 0 0 1 1.972 6.059v13.465h-5.076V24.617a5.278 5.278 0 0 0-1.05-3.433 4.665 4.665 0 0 0-6.584.135 5.54 5.54 0 0 0-1.165 3.608z" class="cls-7" transform="translate(-33.415 -5)"/>
            <path id="Path_8" d="M150.427 28.813l4.281 1.346a9.471 9.471 0 0 1-3.433 4.833 9.929 9.929 0 0 1-6.186 1.905 10.643 10.643 0 0 1-7.721-3.1 11.116 11.116 0 0 1-3.171-8.314 11.026 11.026 0 0 1 3.083-8.011 10.607 10.607 0 0 1 14.938-.155 11.473 11.473 0 0 1 2.753 8.078 5.419 5.419 0 0 1-.128 1.616h-15.57a5.507 5.507 0 0 0 1.77 3.925 5.715 5.715 0 0 0 4.039 1.575 5.069 5.069 0 0 0 5.345-3.698zm-11.02-5.554h10.448a4.914 4.914 0 0 0-1.42-3.366 5.1 5.1 0 0 0-3.824-1.346 4.934 4.934 0 0 0-3.676 1.42 5.1 5.1 0 0 0-1.527 3.293z" class="cls-7" transform="translate(-43.858 -4.68)"/>
            <path id="Path_9" d="M173.559 44.946h-5.029V15.327h4.9v2.888a6.368 6.368 0 0 1 2.625-2.4 8.657 8.657 0 0 1 4.153-.963 8.923 8.923 0 0 1 7.216 3.123 12 12 0 0 1 2.625 7.984 11.814 11.814 0 0 1-2.749 8.021 9.162 9.162 0 0 1-7.277 3.184 8.792 8.792 0 0 1-3.891-.828 6.489 6.489 0 0 1-2.572-2.107zM185 25.963a7.048 7.048 0 0 0-1.575-4.786 5.634 5.634 0 0 0-8.287 0 6.994 6.994 0 0 0-1.6 4.786 7.136 7.136 0 0 0 1.6 4.854 5.567 5.567 0 0 0 8.267 0 7.136 7.136 0 0 0 1.555-4.854z" class="cls-7" transform="translate(-55.081 -4.853)"/>
            <path id="Path_10" d="M250.188 30.466a5.668 5.668 0 0 1 1.77-4.355 8.563 8.563 0 0 1 4.658-2.073l5.466-.835c1.05-.141 1.575-.673 1.575-1.528a2.982 2.982 0 0 0-1-2.343 4.443 4.443 0 0 0-3.016-.9 4.086 4.086 0 0 0-4.376 3.851l-4.638-1.05a7.257 7.257 0 0 1 2.76-4.921 9.424 9.424 0 0 1 6.207-2.02q4.631 0 6.846 2.228a7.8 7.8 0 0 1 2.208 5.729v10.58a18 18 0 0 0 .263 3.413H264.2a10.825 10.825 0 0 1-.215-2.693 8.048 8.048 0 0 1-11.8 1.414 6.059 6.059 0 0 1-1.997-4.497zm8.179 2.477a5.58 5.58 0 0 0 3.81-1.346 5.347 5.347 0 0 0 1.461-4.221v-.936l-5.5.835q-2.834.471-2.841 2.881a2.639 2.639 0 0 0 .828 1.952 3.13 3.13 0 0 0 2.242.835z" class="cls-7" transform="translate(-81.768 -4.67)"/>
            <path id="Path_11" d="M294.487 15.941V21.1a11.162 11.162 0 0 0-1.663-.128q-5.722 0-5.729 6.254v10.155H282v-21.3h4.941V19.5a5.782 5.782 0 0 1 2.4-2.693 7.284 7.284 0 0 1 3.763-.983 6.887 6.887 0 0 1 1.38.121z" class="cls-7" transform="translate(-92.167 -5.17)"/>
            <path id="Path_12" d="M319.234 28.813l4.288 1.346a9.472 9.472 0 0 1-3.433 4.833A9.929 9.929 0 0 1 313.9 36.9a10.629 10.629 0 0 1-7.721-3.1A11.068 11.068 0 0 1 303 25.488a11.026 11.026 0 0 1 3.1-8.017 10.607 10.607 0 0 1 14.938-.155 11.433 11.433 0 0 1 2.753 8.078 5.089 5.089 0 0 1-.135 1.616h-15.57a5.48 5.48 0 0 0 1.77 3.925 5.7 5.7 0 0 0 4.039 1.575 5.058 5.058 0 0 0 5.339-3.697zm-11.02-5.554h10.454a4.941 4.941 0 0 0-1.42-3.366 5.116 5.116 0 0 0-3.83-1.346 4.954 4.954 0 0 0-3.689 1.407 5.13 5.13 0 0 0-1.515 3.305z" class="cls-7" transform="translate(-99.027 -4.68)"/>
            <path id="Path_13" d="M222.03 16.24l.04.108.034-.108z" class="cls-3" transform="translate(-72.567 -5.308)"/>
            <path id="Path_14" d="M236.595 16.21l-4.005 13.935-3.453-10.912-2.356 6.981 3.628 11.316 4.524-.02 6.819-21.3z" class="cls-7" transform="translate(-74.119 -5.298)"/>
            <path id="Path_15" d="M226.657 16.21h-4.51l-.007.02 4.517-.02z" class="cls-3" transform="translate(-72.602 -5.298)"/>
            <path id="Path_16" d="M219.483 16.21l-4.517.02-.034.108-4.988 14.614-4.328-14.742h-5.426l6.913 21.3h5.2l1.643-4.874v-.007l3.177-9.431z" class="cls-7" transform="translate(-65.429 -5.298)"/>
            <path id="Path_17" d="M223.807 26.59l-3.177 9.431v.007l3.177-9.431z" class="cls-3" transform="translate(-72.109 -8.69)"/>
            <path id="Path_19" d="M225.35 23.2l2.356-6.994z" class="cls-3" transform="translate(-73.652 -5.298)"/>
        </g>
    </g>
</svg>
